<?xml version="1.0" encoding="UTF-8" standalone="no"?>
<!DOCTYPE svg PUBLIC "-//W3C//DTD SVG 1.1//EN" "http://www.w3.org/Graphics/SVG/1.1/DTD/svg11.dtd">
<svg width="100%" height="100%" viewBox="0 0 31 31" version="1.1" xmlns="http://www.w3.org/2000/svg" xmlns:xlink="http://www.w3.org/1999/xlink" xml:space="preserve" xmlns:serif="http://www.serif.com/" style="fill-rule:evenodd;clip-rule:evenodd;stroke-linejoin:round;stroke-miterlimit:2;">
    <g transform="matrix(0.0722004,0,0,0.0722004,-159.496,-28.3001)">
        <path d="M2386.62,814.679C2285.95,798.01 2209.07,710.304 2209.07,604.75C2209.07,487.311 2304.24,391.966 2421.47,391.966C2538.69,391.966 2633.86,487.311 2633.86,604.75C2633.86,711.795 2554.79,800.485 2452.01,815.346L2452.01,664.876L2506.2,664.876L2514.64,602.941L2452.01,602.941L2452.01,563.494C2452.01,545.791 2456.92,533.284 2483.23,533.284L2516.8,533.284L2516.8,478.134C2511.11,477.363 2491.08,475.634 2467.91,475.634C2419.61,475.634 2386.62,504.459 2386.62,557.336L2386.62,602.941L2332.04,602.941L2332.04,664.876L2386.62,664.876L2386.62,814.679Z" style="fill:rgb(223,225,236);"/>
    </g>
</svg>
