<?xml version="1.0" encoding="UTF-8" standalone="no"?>
<!DOCTYPE svg PUBLIC "-//W3C//DTD SVG 1.1//EN" "http://www.w3.org/Graphics/SVG/1.1/DTD/svg11.dtd">
<svg width="100%" height="100%" viewBox="0 0 32 30" version="1.1" xmlns="http://www.w3.org/2000/svg" xmlns:xlink="http://www.w3.org/1999/xlink" xml:space="preserve" xmlns:serif="http://www.serif.com/" style="fill-rule:evenodd;clip-rule:evenodd;stroke-linejoin:round;stroke-miterlimit:2;">
    <path d="M16.136,-0C24.318,-0 30.961,6.647 30.961,14.834C30.961,23.021 24.318,29.668 16.136,29.668C7.954,29.668 1.312,23.021 1.312,14.834C1.312,6.647 7.954,-0 16.136,-0ZM10.302,21.775C8.25,21.775 6.621,21.184 5.414,20.001C4.207,18.819 3.603,17.156 3.603,15.013C3.603,12.946 4.208,11.298 5.418,10.069C6.628,8.839 8.259,8.225 10.312,8.225C10.857,8.225 11.347,8.254 11.782,8.312C12.217,8.371 12.634,8.453 13.032,8.558C13.344,8.645 13.684,8.765 14.052,8.917C14.419,9.069 14.717,9.2 14.943,9.311L14.943,12.42L14.594,12.42C14.429,12.28 14.22,12.112 13.969,11.917C13.718,11.721 13.433,11.53 13.114,11.343C12.796,11.156 12.445,10.997 12.062,10.866C11.679,10.734 11.28,10.669 10.863,10.669C10.367,10.669 9.912,10.743 9.498,10.892C9.085,11.041 8.691,11.299 8.318,11.667C7.974,12 7.694,12.45 7.477,13.016C7.259,13.582 7.15,14.251 7.15,15.022C7.15,15.834 7.264,16.515 7.49,17.067C7.717,17.619 8.014,18.064 8.382,18.403C8.737,18.73 9.134,18.966 9.572,19.112C10.01,19.258 10.446,19.331 10.881,19.331C11.335,19.331 11.767,19.26 12.177,19.117C12.588,18.974 12.934,18.815 13.216,18.639C13.522,18.458 13.791,18.274 14.024,18.088C14.257,17.901 14.459,17.734 14.631,17.588L14.943,17.588L14.943,20.654C14.692,20.765 14.401,20.892 14.07,21.035C13.739,21.178 13.399,21.299 13.05,21.399C12.621,21.521 12.22,21.615 11.846,21.679C11.473,21.743 10.958,21.775 10.302,21.775ZM28.397,8.479L23.692,21.521L20.108,21.521L15.403,8.479L18.968,8.479L21.946,17.317L24.923,8.479L28.397,8.479Z" style="fill:rgb(35,35,35);"/>
</svg>
