<?xml version="1.0" encoding="UTF-8" standalone="no"?>
<!DOCTYPE svg PUBLIC "-//W3C//DTD SVG 1.1//EN" "http://www.w3.org/Graphics/SVG/1.1/DTD/svg11.dtd">
<svg width="100%" height="100%" viewBox="0 0 32 30" version="1.1" xmlns="http://www.w3.org/2000/svg" xmlns:xlink="http://www.w3.org/1999/xlink" xml:space="preserve" xmlns:serif="http://www.serif.com/" style="fill-rule:evenodd;clip-rule:evenodd;stroke-linejoin:round;stroke-miterlimit:2;">
    <path d="M16,0C24.107,0 30.688,6.721 30.688,15C30.688,23.279 24.107,30 16,30C7.893,30 1.312,23.279 1.312,15C1.312,6.721 7.893,0 16,0ZM22.647,9.374L22.647,24.487L9.353,24.487L9.353,5.513L17.264,5.513L17.264,10.896L22.647,10.896L22.647,9.374L18.576,9.374L18.576,5.513L22.647,9.374ZM14.416,18.494L15.603,18.87C15.421,19.532 15.118,20.024 14.695,20.345C14.272,20.666 13.735,20.827 13.084,20.827C12.279,20.827 11.617,20.552 11.099,20.001C10.581,19.451 10.321,18.699 10.321,17.745C10.321,16.736 10.582,15.952 11.103,15.394C11.624,14.836 12.309,14.556 13.159,14.556C13.9,14.556 14.503,14.776 14.966,15.214C15.242,15.473 15.449,15.846 15.586,16.331L14.375,16.62C14.303,16.306 14.153,16.058 13.926,15.876C13.698,15.694 13.422,15.603 13.097,15.603C12.647,15.603 12.282,15.764 12.003,16.087C11.723,16.409 11.583,16.932 11.583,17.654C11.583,18.421 11.721,18.967 11.996,19.292C12.272,19.617 12.631,19.78 13.072,19.78C13.397,19.78 13.677,19.677 13.911,19.47C14.146,19.263 14.314,18.938 14.416,18.494ZM18.2,20.723L16.033,14.66L17.361,14.66L18.895,19.147L20.38,14.66L21.679,14.66L19.507,20.723L18.2,20.723Z" style="fill:rgb(35,35,35);"/>
</svg>
