<?xml version="1.0" encoding="UTF-8" standalone="no"?>
<!DOCTYPE svg PUBLIC "-//W3C//DTD SVG 1.1//EN" "http://www.w3.org/Graphics/SVG/1.1/DTD/svg11.dtd">
<svg width="100%" height="100%" viewBox="0 0 31 30" version="1.1" xmlns="http://www.w3.org/2000/svg" xmlns:xlink="http://www.w3.org/1999/xlink" xml:space="preserve" xmlns:serif="http://www.serif.com/" style="fill-rule:evenodd;clip-rule:evenodd;stroke-linejoin:round;stroke-miterlimit:2;">
    <g transform="matrix(50.9554,0,0,50.9554,-0.00318471,32.7563)">
        <path d="M0.3,-0.643C0.134,-0.643 0,-0.509 0,-0.343C0,-0.21 0.086,-0.098 0.205,-0.058C0.22,-0.055 0.226,-0.065 0.226,-0.072C0.226,-0.08 0.225,-0.103 0.225,-0.128C0.225,-0.128 0.141,-0.111 0.123,-0.164C0.123,-0.164 0.11,-0.198 0.091,-0.208C0.091,-0.208 0.063,-0.227 0.093,-0.226C0.093,-0.226 0.123,-0.224 0.139,-0.195C0.165,-0.149 0.208,-0.162 0.226,-0.169C0.228,-0.189 0.236,-0.203 0.245,-0.21C0.178,-0.218 0.108,-0.243 0.108,-0.358C0.108,-0.391 0.12,-0.418 0.139,-0.439C0.136,-0.446 0.126,-0.477 0.142,-0.518C0.167,-0.526 0.224,-0.488 0.224,-0.488C0.248,-0.494 0.275,-0.498 0.3,-0.498C0.325,-0.498 0.351,-0.494 0.375,-0.488C0.375,-0.488 0.432,-0.526 0.457,-0.518C0.473,-0.477 0.463,-0.446 0.46,-0.439C0.479,-0.418 0.491,-0.391 0.491,-0.358C0.491,-0.243 0.42,-0.218 0.354,-0.21C0.365,-0.201 0.374,-0.183 0.374,-0.155L0.374,-0.072C0.374,-0.065 0.379,-0.055 0.394,-0.058C0.513,-0.098 0.599,-0.21 0.599,-0.343C0.599,-0.509 0.466,-0.643 0.3,-0.643ZM0.113,-0.212C0.112,-0.21 0.11,-0.21 0.108,-0.211C0.106,-0.213 0.104,-0.215 0.105,-0.216C0.106,-0.218 0.108,-0.218 0.11,-0.217C0.112,-0.215 0.114,-0.213 0.113,-0.212ZM0.125,-0.198C0.124,-0.197 0.121,-0.198 0.119,-0.2C0.117,-0.202 0.117,-0.205 0.118,-0.206C0.12,-0.208 0.123,-0.207 0.125,-0.205C0.127,-0.203 0.127,-0.2 0.125,-0.198ZM0.137,-0.181C0.135,-0.179 0.132,-0.181 0.13,-0.184C0.128,-0.186 0.128,-0.189 0.13,-0.191C0.132,-0.192 0.135,-0.191 0.137,-0.189C0.139,-0.186 0.139,-0.182 0.137,-0.181ZM0.153,-0.164C0.152,-0.162 0.149,-0.162 0.146,-0.165C0.143,-0.167 0.142,-0.172 0.144,-0.173C0.145,-0.175 0.149,-0.174 0.152,-0.172C0.154,-0.169 0.155,-0.166 0.153,-0.164ZM0.176,-0.155C0.175,-0.153 0.171,-0.151 0.168,-0.152C0.165,-0.153 0.163,-0.156 0.163,-0.158C0.164,-0.16 0.167,-0.162 0.17,-0.161C0.174,-0.16 0.177,-0.157 0.176,-0.155ZM0.2,-0.153C0.2,-0.151 0.198,-0.149 0.194,-0.149C0.19,-0.148 0.187,-0.15 0.187,-0.153C0.187,-0.155 0.19,-0.157 0.193,-0.157C0.197,-0.158 0.2,-0.155 0.2,-0.153ZM0.223,-0.157C0.224,-0.155 0.221,-0.152 0.217,-0.151C0.214,-0.151 0.211,-0.152 0.21,-0.154C0.209,-0.157 0.212,-0.16 0.216,-0.16C0.219,-0.161 0.222,-0.159 0.223,-0.157Z" style="fill:rgb(223,225,236);fill-rule:nonzero;"/>
    </g>
</svg>
