<?xml version="1.0" encoding="UTF-8" standalone="no"?>
<!DOCTYPE svg PUBLIC "-//W3C//DTD SVG 1.1//EN" "http://www.w3.org/Graphics/SVG/1.1/DTD/svg11.dtd">
<svg width="100%" height="100%" viewBox="0 0 32 30" version="1.1" xmlns="http://www.w3.org/2000/svg" xmlns:xlink="http://www.w3.org/1999/xlink" xml:space="preserve" xmlns:serif="http://www.serif.com/" style="fill-rule:evenodd;clip-rule:evenodd;stroke-linejoin:round;stroke-miterlimit:2;">
    <path d="M15.313,0C23.746,0 30.592,6.846 30.592,15.279C30.592,23.711 23.746,30.558 15.313,30.558C6.88,30.558 0.034,23.711 0.034,15.279C0.034,6.846 6.88,0 15.313,0ZM9.869,11.439L5.366,11.439L5.366,24.95L9.869,24.95L9.869,11.439ZM16.868,13.348L16.868,11.439L12.365,11.439C12.365,11.439 12.414,12.705 12.365,24.95L16.868,24.95L16.868,17.392C16.868,16.976 16.917,16.585 17.015,16.291C17.332,15.484 18.063,14.653 19.307,14.653C20.917,14.653 21.6,15.9 21.6,17.71L21.6,24.95L26.075,24.95L26.075,17.196C26.075,13.046 23.874,11.123 20.917,11.123C18.536,11.123 17.459,12.425 16.868,13.348L16.868,13.387L16.844,13.387L16.868,13.348ZM10.152,7.248C10.128,5.925 9.199,4.897 7.659,4.897C6.144,4.897 5.117,5.925 5.117,7.248C5.117,8.546 6.095,9.575 7.61,9.575L7.635,9.575C9.199,9.575 10.177,8.546 10.152,7.248Z" style="fill:rgb(223,225,236);"/>
</svg>
